<?xml version="1.0" standalone="no"?>
<!DOCTYPE svg PUBLIC "-//W3C//DTD SVG 20010904//EN"
 "http://www.w3.org/TR/2001/REC-SVG-20010904/DTD/svg10.dtd">
<svg version="1.0" xmlns="http://www.w3.org/2000/svg"
 width="640.000000pt" height="360.000000pt" viewBox="0 0 640.000000 360.000000"
 preserveAspectRatio="xMidYMid meet">

<g transform="translate(0.000000,360.000000) scale(0.100000,-0.100000)"
fill="#000000" stroke="none">
<path d="M3895 2740 c-38 -11 -158 -52 -265 -91 -343 -125 -502 -178 -638
-210 -133 -32 -134 -32 -165 -14 -63 37 -195 136 -283 211 -99 85 -116 94
-180 94 -56 0 -95 -20 -129 -65 l-27 -34 -40 20 c-87 45 -111 49 -157 29 -61
-28 -167 -99 -243 -164 l-68 -57 0 -72 c0 -74 29 -267 55 -366 22 -85 79 -246
120 -341 83 -193 251 -461 297 -474 13 -4 80 -9 150 -13 145 -7 156 -14 111
-70 -85 -107 -100 -161 -63 -232 26 -51 37 -49 15 2 -8 20 -15 56 -15 81 0 36
8 54 44 104 24 33 49 63 55 66 6 4 4 17 -7 36 -26 45 -6 57 49 29 44 -21 44
-21 25 -1 -10 12 -23 19 -27 16 -15 -9 -9 20 8 41 15 20 15 20 10 -3 -3 -13
-1 -20 5 -16 5 3 22 -6 38 -21 21 -21 35 -26 61 -22 l34 4 -36 1 c-53 3 -72
30 -76 108 -4 64 -3 65 55 158 57 91 59 98 66 179 6 77 3 153 -10 215 -3 17
-11 22 -32 21 -21 -1 -22 -2 -7 -6 11 -3 23 -10 27 -17 4 -6 8 -73 8 -150 l0
-139 -55 -83 c-115 -173 -166 -207 -284 -188 -55 9 -56 10 -114 89 -63 88
-181 315 -216 416 -67 191 -98 340 -106 506 l-6 118 43 32 c64 47 146 85 194
91 34 4 53 -1 97 -27 l55 -31 16 47 c21 63 42 83 83 83 28 0 47 -12 103 -62
38 -34 106 -88 150 -119 71 -51 84 -57 106 -49 44 17 67 11 137 -34 l69 -44
126 33 c144 38 376 116 597 199 194 74 334 115 367 109 35 -7 65 -72 83 -175
3 -21 7 -38 9 -38 1 0 22 10 46 21 39 19 49 20 94 10 60 -13 142 -50 210 -93
l48 -32 -7 -70 c-26 -275 -157 -588 -357 -858 -98 -132 -97 -132 -203 -124
-123 8 -191 28 -231 67 -41 40 -48 69 -39 179 l7 88 37 14 c44 18 49 33 76
213 15 103 15 110 -1 122 -10 7 -29 13 -42 13 -22 0 -23 3 -17 39 6 34 4 41
-16 52 -27 14 -227 25 -292 15 -42 -6 -46 -10 -49 -37 l-3 -29 -39 20 c-21 12
-41 19 -44 16 -3 -3 -1 -6 5 -6 5 0 20 -9 33 -20 33 -29 60 -26 60 5 0 39 37
48 170 42 145 -5 151 -8 148 -60 -3 -39 -1 -42 27 -47 27 -4 30 -10 33 -45 2
-21 -2 -77 -8 -123 -14 -97 -28 -116 -95 -133 l-44 -11 -26 -87 c-14 -47 -36
-115 -48 -151 -21 -62 -23 -65 -57 -68 -52 -4 -112 19 -127 48 -8 16 -13 67
-13 136 l0 112 48 7 c26 4 50 12 54 18 4 7 7 48 6 92 l-2 80 -3 -68 c-4 -62
-6 -69 -29 -77 -14 -6 -47 -10 -73 -10 l-48 0 -17 -127 c-24 -170 -26 -176
-67 -190 -35 -13 -107 -8 -123 8 -5 4 -15 54 -21 111 -10 78 -13 91 -14 51 -1
-30 -6 -53 -13 -55 -9 -3 -6 -18 9 -55 l21 -51 -21 -6 c-12 -3 -63 -9 -113
-12 l-91 -7 -14 59 c-15 58 -16 59 -52 62 l-37 3 7 -63 c4 -42 18 -89 44 -143
49 -103 149 -274 149 -254 0 8 -14 37 -30 63 -69 107 -109 186 -96 186 8 0 16
-8 18 -18 5 -17 22 -19 197 -25 106 -3 199 -3 207 0 8 3 18 19 21 35 7 38 46
36 52 -2 4 -31 13 -37 81 -51 l54 -11 -29 -15 c-49 -25 -114 -94 -131 -140
-16 -42 -16 -136 0 -175 6 -13 -1 -19 -33 -29 -23 -7 -41 -15 -41 -19 0 -13
55 -116 93 -173 17 -26 17 -30 3 -46 -26 -28 -20 -49 17 -56 17 -4 44 -14 59
-21 34 -18 27 -44 -12 -44 -16 0 -41 -5 -57 -11 -22 -8 -24 -12 -13 -19 24
-15 60 -12 60 5 0 21 12 19 33 -5 15 -18 24 -19 74 -13 32 3 64 12 71 20 20
20 53 35 60 28 6 -6 -10 -20 -33 -28 -23 -9 6 -17 90 -25 108 -10 135 -6 135
19 0 21 11 24 26 9 7 -7 16 -4 29 10 25 27 38 25 31 -5 -8 -30 4 -32 59 -6 32
16 35 20 17 20 -18 1 -21 5 -17 24 3 12 9 49 13 81 l7 60 52 25 c134 67 190
189 135 298 -21 41 -74 93 -95 93 -6 0 -1 -7 11 -16 34 -23 82 -93 82 -118 0
-18 -3 -16 -16 9 -21 41 -22 41 -17 -12 5 -57 -7 -80 -32 -66 -9 5 -16 13 -16
16 3 20 -2 28 -41 67 -22 24 -45 57 -49 74 l-7 31 -1 -30 c-1 -22 11 -44 39
-79 48 -57 51 -91 14 -136 -24 -28 -124 -88 -124 -75 0 3 12 18 26 33 31 33
64 94 64 120 0 10 -29 74 -65 142 -35 69 -65 129 -65 133 0 5 8 6 18 3 42 -12
236 -36 253 -31 17 6 153 171 210 257 l25 37 11 -30 c16 -40 82 -70 143 -63
44 5 45 5 20 -11 l-25 -16 25 5 c14 3 28 6 32 6 3 0 8 8 10 17 3 15 4 15 21
-1 9 -10 17 -14 17 -9 0 10 -37 43 -72 66 -28 18 -38 11 -16 -11 9 -9 9 -12 0
-12 -7 0 -12 5 -12 11 0 5 -4 8 -9 4 -5 -3 -13 0 -17 6 -4 7 -3 9 3 6 16 -10
24 22 12 45 -8 14 -8 23 0 31 7 7 12 5 16 -9 12 -38 22 -47 48 -48 33 -2 67
26 67 54 0 11 7 20 15 20 8 0 15 -4 15 -10 0 -5 -4 -10 -9 -10 -5 0 -11 -6
-14 -13 -5 -12 9 -14 135 -16 60 0 69 -16 21 -37 -38 -16 -38 -16 -13 -25 19
-8 27 -6 37 7 12 17 13 17 13 0 0 -40 74 -62 100 -31 7 8 16 13 20 10 11 -7
91 36 103 55 12 20 -6 89 -30 117 -31 35 -115 81 -98 53 8 -13 -75 -13 -95 0
-12 8 -12 10 -1 10 8 0 12 2 9 5 -3 3 -13 2 -23 -1 -15 -6 -17 -16 -11 -81 l7
-73 -33 0 c-18 0 -50 3 -70 6 -32 6 -38 11 -38 31 0 22 -3 24 -27 19 -16 -3
-22 -3 -15 0 6 3 12 10 12 16 0 5 -16 1 -35 -11 l-35 -20 0 54 c0 44 -3 55
-20 60 -19 6 -71 -15 -100 -41 -8 -7 23 65 70 160 47 95 100 217 118 272 40
121 74 284 70 333 -3 35 -5 37 -143 108 -175 90 -309 145 -355 146 -33 0 -37
3 -58 52 -13 29 -36 65 -52 80 -38 36 -118 42 -215 15z m670 -1139 c7 -12 -26
-31 -54 -31 -28 0 -27 14 2 28 28 14 44 14 52 3z m441 -46 c21 -20 30 -31 19
-26 -30 16 -81 61 -69 61 6 0 28 -16 50 -35z m-383 -73 c-2 -10 -11 -19 -19
-19 -17 0 -18 9 -2 25 17 17 27 15 21 -6z m-126 -54 c-3 -8 -6 -5 -6 6 -1 11
2 17 5 13 3 -3 4 -12 1 -19z m-807 -54 c28 -26 71 -79 97 -118 45 -67 183
-328 183 -344 -1 -16 -90 133 -90 150 0 11 -4 16 -10 13 -6 -4 -7 1 -3 11 4
12 3 15 -5 10 -7 -4 -13 -2 -13 3 -1 6 -2 16 -3 21 0 6 -4 10 -8 10 -5 0 -13
0 -19 0 -8 0 -9 -4 0 -13 18 -22 2 -26 -36 -11 -19 8 -40 13 -46 11 -7 -2 2
-10 18 -17 17 -7 40 -17 52 -22 11 -6 25 -8 31 -4 5 3 14 -6 21 -20 6 -14 7
-23 2 -20 -5 4 -11 1 -14 -6 -2 -7 -3 -4 -1 7 3 16 -2 20 -21 20 -25 -2 -27
-7 -18 -32 8 -20 -5 -44 -26 -50 -11 -3 -21 -15 -23 -27 -2 -17 -10 -21 -38
-21 -27 0 -35 4 -34 18 2 20 -7 22 -23 6 -11 -11 -37 -3 -29 9 2 4 -4 23 -15
42 -16 30 -18 32 -19 12 0 -14 -4 -21 -11 -16 -6 3 -9 15 -6 25 3 12 0 19 -9
19 -8 0 -14 -5 -14 -12 0 -7 -17 5 -38 25 -37 36 -67 52 -42 22 26 -32 -27
-49 -66 -21 -18 14 -18 15 9 21 32 8 37 26 6 20 -21 -4 -69 -32 -69 -39 0 -2
20 -13 45 -25 25 -12 45 -27 45 -35 0 -9 7 -12 20 -9 13 4 20 0 20 -10 0 -17
-57 -27 -89 -15 -13 4 -21 3 -21 -3 0 -7 -9 -9 -21 -6 -18 5 -20 2 -15 -21 6
-26 6 -26 -9 -8 -8 11 -15 25 -15 30 0 6 -5 4 -10 -4 -7 -11 -10 3 -10 48 0
47 4 66 19 81 10 10 20 23 22 28 14 34 175 143 212 143 23 0 21 9 -5 31 -23
21 -32 24 -23 9 3 -5 2 -10 -3 -10 -6 0 -19 16 -31 35 -15 26 -17 35 -7 35 23
0 109 -65 112 -84 1 -10 11 -28 22 -40 11 -11 25 -31 31 -44 7 -12 16 -20 21
-17 15 9 -2 112 -35 204 -18 52 -18 51 -5 51 6 0 33 -21 60 -46z m1130 26 c0
-5 -4 -10 -10 -10 -5 0 -10 5 -10 10 0 6 5 10 10 10 6 0 10 -4 10 -10z m-1191
-85 l0 -20 -9 20 c-5 11 -9 29 -9 40 l0 20 9 -20 c5 -11 9 -29 9 -40z m-147
-12 c16 -39 18 -53 7 -53 -10 0 -29 43 -29 66 0 22 9 17 22 -13z m168 -53 c0
-5 -5 -10 -11 -10 -5 0 -7 5 -4 10 3 6 8 10 11 10 2 0 4 -4 4 -10z m-160 -305
c0 -17 -42 -85 -53 -85 -20 0 -9 78 11 83 26 7 42 8 42 2z m-80 -29 c0 -24
-18 -28 -30 -6 -9 17 -8 20 10 20 11 0 20 -6 20 -14z m-85 -6 c3 -5 1 -10 -4
-10 -6 0 -11 5 -11 10 0 6 2 10 4 10 3 0 8 -4 11 -10z m20 -30 c3 -5 1 -10 -4
-10 -6 0 -11 5 -11 10 0 6 2 10 4 10 3 0 8 -4 11 -10z m30 1 c3 -5 2 -12 -3
-15 -5 -3 -9 1 -9 9 0 17 3 19 12 6z m-14 -37 c25 -12 28 -18 18 -30 -20 -24
-119 -15 -119 12 0 15 28 33 53 34 10 0 32 -7 48 -16z m44 6 c3 -6 -1 -7 -9
-4 -18 7 -21 14 -7 14 6 0 13 -4 16 -10z m641 -45 c-36 -47 -43 -45 -8 4 15
21 29 37 31 35 2 -2 -8 -19 -23 -39z m-597 32 c-2 -1 -12 -9 -22 -16 -15 -12
-17 -12 -11 3 3 9 13 16 22 16 8 0 13 -1 11 -3z m351 -37 c0 -13 -46 -24 -67
-16 -15 6 -15 8 -3 16 20 13 70 13 70 0z m195 -40 c-3 -5 -12 -10 -18 -10 -7
0 -6 4 3 10 19 12 23 12 15 0z m-392 -18 c-10 -10 -20 -17 -22 -16 -6 5 20 34
30 34 5 0 1 -8 -8 -18z m-243 -72 c12 -8 11 -10 -7 -10 -12 0 -25 5 -28 10 -8
13 15 13 35 0z m-5 -50 c3 -5 -1 -10 -10 -10 -9 0 -13 5 -10 10 3 6 8 10 10
10 2 0 7 -4 10 -10z"/>
<path d="M3602 1190 c0 -14 2 -19 5 -12 2 6 2 18 0 25 -3 6 -5 1 -5 -13z"/>
<path d="M3625 1160 c3 -5 8 -10 11 -10 2 0 4 5 4 10 0 6 -5 10 -11 10 -5 0
-7 -4 -4 -10z"/>
<path d="M3696 1145 c4 -8 12 -15 20 -15 8 0 14 7 14 15 0 8 -9 15 -20 15 -13
0 -18 -5 -14 -15z"/>
<path d="M3336 1043 c-6 -14 -5 -15 5 -6 7 7 10 15 7 18 -3 3 -9 -2 -12 -12z"/>
<path d="M3380 1010 c0 -5 5 -10 11 -10 5 0 7 5 4 10 -3 6 -8 10 -11 10 -2 0
-4 -4 -4 -10z"/>
<path d="M2385 2420 c10 -11 20 -20 23 -20 3 0 -3 9 -13 20 -10 11 -20 20 -23
20 -3 0 3 -9 13 -20z"/>
<path d="M2420 2396 c0 -3 9 -10 20 -16 11 -6 20 -8 20 -6 0 3 -9 10 -20 16
-11 6 -20 8 -20 6z"/>
<path d="M4100 2336 c0 -2 7 -7 16 -10 8 -3 12 -2 9 4 -6 10 -25 14 -25 6z"/>
<path d="M3428 2263 c7 -3 16 -2 19 1 4 3 -2 6 -13 5 -11 0 -14 -3 -6 -6z"/>
<path d="M3348 2243 c6 -2 18 -2 25 0 6 3 1 5 -13 5 -14 0 -19 -2 -12 -5z"/>
<path d="M3308 2233 c7 -3 16 -2 19 1 4 3 -2 6 -13 5 -11 0 -14 -3 -6 -6z"/>
<path d="M3183 2223 c9 -2 23 -2 30 0 6 3 -1 5 -18 5 -16 0 -22 -2 -12 -5z"/>
<path d="M2605 2103 c-3 -14 -4 -28 0 -31 3 -3 5 3 5 12 0 13 6 17 20 13 25
-6 25 -5 1 15 -18 15 -20 15 -26 -9z"/>
<path d="M3058 2093 c12 -2 32 -2 45 0 12 2 2 4 -23 4 -25 0 -35 -2 -22 -4z"/>
<path d="M3141 2096 c10 -8 129 -13 123 -5 -3 5 -33 9 -66 9 -34 0 -59 -2 -57
-4z"/>
<path d="M3017 2083 c-4 -3 -7 -17 -7 -29 0 -23 -2 -23 -66 -17 -61 6 -65 5
-71 -16 -3 -11 -10 -21 -15 -21 -5 0 -3 -6 5 -14 8 -9 17 -46 21 -93 8 -102
32 -214 49 -230 7 -8 39 -15 70 -16 49 -2 57 0 57 15 0 14 -8 18 -42 18 -69 0
-84 8 -96 48 -14 47 -32 192 -32 256 l0 49 48 -6 c26 -2 54 -8 63 -11 14 -6
18 0 21 33 2 23 3 41 2 41 0 0 -4 -3 -7 -7z"/>
<path d="M2270 1983 c0 -94 26 -220 72 -350 l40 -112 38 19 c36 19 98 85 88
95 -2 2 -21 0 -42 -6 -21 -6 -44 -8 -51 -6 -16 7 -35 83 -35 146 0 40 4 52 20
61 26 14 187 49 194 43 2 -3 2 5 -1 17 -3 12 -16 26 -29 32 l-23 11 25 36 c13
19 24 42 24 51 -1 8 -9 -1 -20 -21 -33 -63 -34 -63 -168 -3 -67 30 -125 54
-127 54 -3 0 -5 -30 -5 -67z"/>
<path d="M3333 1975 c0 -27 2 -38 4 -22 2 15 2 37 0 50 -2 12 -4 0 -4 -28z"/>
<path d="M3900 1959 c-33 -120 -60 -352 -43 -362 6 -4 33 -4 61 0 l50 6 27 81
c25 74 34 113 51 217 6 35 5 36 -54 67 -33 18 -65 32 -71 32 -5 0 -15 -18 -21
-41z"/>
<path d="M4011 1976 c2 -2 15 -9 29 -15 24 -11 24 -11 6 3 -16 13 -49 24 -35
12z"/>
<path d="M2715 1754 c-4 -53 -4 -99 1 -104 5 -5 26 -12 48 -16 34 -6 38 -5 33
12 -3 11 -9 42 -12 69 -11 89 -16 103 -40 119 l-23 15 -7 -95z"/>
<path d="M4745 1420 c4 -6 11 -8 16 -5 14 9 11 15 -7 15 -8 0 -12 -5 -9 -10z"/>
<path d="M4695 1395 c-16 -7 -23 -14 -14 -14 8 -1 24 6 35 14 24 18 18 18 -21
0z"/>
<path d="M2590 1396 c0 -2 8 -10 18 -17 15 -13 16 -12 3 4 -13 16 -21 21 -21
13z"/>
<path d="M4636 1365 c-3 -8 -1 -15 3 -15 5 0 11 7 15 15 3 8 1 15 -3 15 -5 0
-11 -7 -15 -15z"/>
<path d="M4980 1365 c0 -2 15 -12 33 -20 l32 -16 -25 20 c-24 20 -40 26 -40
16z"/>
<path d="M2648 1318 c28 -42 34 -42 38 1 3 26 0 29 -30 33 l-33 4 25 -38z"/>
<path d="M4935 1349 c-4 -6 -4 -13 0 -17 4 -4 10 -1 12 6 3 6 9 9 14 6 6 -3 5
-11 -2 -20 -9 -11 -9 -21 1 -42 7 -16 15 -22 17 -14 3 6 9 12 14 12 14 0 11
-38 -3 -43 -10 -3 -10 -8 -2 -18 12 -16 12 -24 0 -93 -12 -68 -72 -131 -136
-141 -25 -4 -53 -12 -63 -17 -10 -5 -21 -7 -24 -5 -3 3 8 12 24 21 47 26 18
18 -77 -20 -90 -36 -91 -36 -128 -20 -21 10 -64 21 -95 25 -55 7 -58 7 -55
-13 2 -15 -3 -22 -20 -24 -12 -2 -20 -7 -17 -12 3 -4 -11 -11 -31 -14 -37 -8
-59 -40 -48 -73 5 -15 3 -15 -12 2 -15 18 -16 18 -10 2 3 -10 6 -21 6 -23 0
-2 11 -4 24 -4 14 0 30 10 40 25 19 29 40 31 96 9 44 -18 46 -21 25 -48 -8
-11 -15 -26 -15 -34 0 -8 -13 -30 -30 -49 -16 -18 -30 -43 -30 -53 0 -11 -2
-20 -5 -20 -2 0 -33 16 -68 35 -84 46 -98 45 -19 -2 34 -20 60 -38 58 -41 -3
-2 -24 7 -48 21 -24 14 -60 30 -81 37 -27 8 -37 16 -33 27 4 9 1 13 -6 11 -25
-9 -12 -31 27 -46 22 -8 59 -29 83 -45 34 -23 46 -26 57 -17 12 10 23 4 56
-27 64 -62 27 -60 -72 3 -46 30 -104 62 -129 71 -25 9 -48 21 -51 26 -4 5 -13
7 -20 5 -7 -2 20 -21 60 -41 39 -20 114 -65 166 -99 l95 -63 -80 -3 c-110 -4
-102 -22 11 -22 96 0 97 1 57 46 -19 21 -19 22 11 26 16 2 28 1 25 -3 -2 -4 0
-10 6 -14 5 -3 10 -1 10 5 0 6 5 8 11 4 8 -5 8 -9 -1 -14 -17 -10 8 -49 36
-56 33 -8 107 0 111 12 3 8 -15 10 -62 6 -66 -5 -67 -5 -63 19 3 22 7 24 58
21 30 -2 67 1 81 6 14 6 31 7 38 3 9 -6 6 -10 -9 -14 l-23 -6 24 -29 c28 -36
40 -40 97 -34 29 3 42 9 42 19 0 9 -6 13 -15 9 -8 -3 -15 -1 -15 4 0 6 5 10
11 10 15 0 40 27 37 41 -2 6 4 14 12 16 13 4 13 3 0 -6 -13 -9 -13 -11 3 -11
9 0 17 -7 17 -16 0 -14 3 -14 16 -3 9 7 14 22 11 36 -3 18 -1 23 10 18 10 -3
13 -1 10 9 -7 19 25 56 49 56 12 1 6 6 -16 17 l-35 15 35 16 c95 41 196 17
298 -71 31 -28 67 -49 88 -53 78 -14 156 19 201 87 36 55 24 69 -15 15 -41
-60 -85 -86 -142 -86 -50 0 -66 9 -155 85 -60 53 -82 67 -129 85 -44 16 -29 2
21 -20 49 -22 55 -38 7 -19 -38 14 -133 16 -164 2 -14 -6 -29 -11 -35 -13 -5
-1 -24 -10 -41 -21 -17 -10 -38 -19 -47 -19 -9 0 -21 -8 -27 -17 -11 -17 -11
-17 -6 0 3 10 6 21 6 23 0 2 12 4 26 4 14 0 23 4 19 9 -3 5 4 13 16 16 21 7
21 7 -5 34 l-26 27 28 38 27 38 75 -6 c46 -4 96 -17 129 -32 76 -34 113 -32
145 9 l26 32 -28 5 c-15 3 -28 2 -30 -2 -10 -23 -51 -3 -98 46 -28 30 -63 58
-78 62 -28 7 -36 24 -11 24 8 0 15 4 15 9 0 5 -7 11 -15 15 -27 10 -16 24 25
31 43 7 53 24 20 32 -11 3 -20 9 -20 13 0 5 9 12 20 15 11 3 20 10 20 15 0 13
-35 21 -56 13 -18 -7 -18 -6 -1 17 53 73 77 116 77 137 0 13 -4 23 -10 23 -5
0 -10 -6 -10 -14 0 -14 -57 -43 -66 -33 -4 3 8 14 25 25 17 10 28 21 25 25 -3
3 1 16 10 29 27 39 21 50 -19 31 -21 -10 -38 -28 -44 -45 -6 -15 -12 -28 -15
-28 -3 0 -1 11 4 25 9 24 8 25 -30 23 -22 -1 -43 2 -48 7 -4 4 4 5 18 2 l25
-6 -25 19 c-28 22 -46 25 -55 9z m94 -55 c4 3 6 -7 3 -21 -5 -25 -6 -25 -13
-6 -7 21 -35 37 -48 28 -4 -2 -8 2 -8 10 0 12 5 11 29 -1 16 -8 32 -13 37 -10z
m37 -100 c1 -6 -4 -11 -12 -11 -10 0 -11 4 -3 13 7 8 7 14 -1 19 -5 3 -10 12
-10 18 1 13 23 -21 26 -39z m-141 -234 c-16 -4 -41 -8 -55 -9 -20 0 -22 1 -10
9 8 5 33 9 55 9 39 -1 39 -2 10 -9z m-447 -20 c7 -11 9 -20 4 -20 -10 0 -32
22 -32 32 0 15 15 8 28 -12z m567 -10 c26 -7 23 -8 -22 -9 -28 0 -55 4 -58 9
-7 11 35 11 80 0z m208 -140 c-19 -22 -26 -21 -17 4 3 9 12 16 20 16 11 0 10
-4 -3 -20z m-698 -40 c-3 -5 -12 -10 -18 -10 -7 0 -18 -9 -24 -20 -14 -22 -72
-55 -81 -46 -10 10 32 48 73 67 45 21 59 23 50 9z m265 -274 c0 -2 -17 -3 -37
-3 -32 -1 -34 0 -13 6 21 7 50 4 50 -3z"/>
<path d="M4743 1325 c0 -8 4 -12 8 -9 24 14 108 -83 94 -106 -9 -15 -69 -41
-115 -50 -34 -8 -35 -8 -5 -9 35 -1 135 43 135 59 0 22 -30 68 -65 99 -39 34
-52 38 -52 16z"/>
<path d="M4639 1273 c-5 -15 -9 -47 -7 -72 3 -43 5 -46 33 -48 28 -2 28 -1 5
5 -20 6 -26 15 -28 46 -2 21 1 51 7 67 13 37 4 38 -10 2z"/>
<path d="M4476 1248 c-18 -25 -21 -74 -7 -83 5 -3 12 -1 16 5 3 5 1 10 -4 10
-14 0 -14 23 1 55 16 34 36 31 47 -7 8 -30 9 -31 10 -7 2 48 -37 65 -63 27z"/>
<path d="M1726 1201 c-51 -55 -59 -59 -90 -54 -31 5 -34 3 -45 -28 l-12 -34
-25 33 c-20 25 -29 30 -39 22 -10 -8 -20 -8 -37 0 -19 10 -18 8 5 -12 17 -14
27 -33 27 -48 -1 -44 3 -60 13 -60 6 0 8 -3 5 -6 -4 -3 -19 1 -36 10 -30 16
-42 40 -42 90 0 24 -3 27 -12 18 -9 -9 -9 -22 -2 -51 l11 -40 -29 6 c-15 3
-28 1 -28 -3 0 -19 61 -82 91 -94 28 -12 30 -15 15 -25 -22 -17 -11 -40 27
-56 18 -8 35 -14 39 -14 3 0 10 -3 14 -8 4 -4 2 -7 -4 -7 -18 0 -14 -26 12
-79 21 -41 23 -51 12 -67 -8 -10 -16 -32 -20 -49 -5 -22 -17 -35 -44 -47 -96
-45 -103 -103 -9 -63 17 7 18 6 6 -12 -9 -15 -27 -22 -71 -27 -61 -6 -98 -19
-82 -29 18 -10 84 -25 84 -18 0 4 -6 13 -12 20 -11 10 -5 11 27 6 22 -4 45
-13 51 -21 6 -8 30 -14 55 -14 38 0 41 1 25 13 -15 11 -17 17 -7 35 15 27 21
28 14 2 -8 -31 20 -25 81 16 54 36 55 36 80 17 14 -10 26 -23 26 -28 0 -7 15
-9 35 -7 26 3 35 9 35 23 0 16 5 18 28 13 38 -9 46 -19 27 -34 -8 -7 -15 -20
-14 -29 0 -10 2 -11 6 -3 6 15 33 16 33 2 0 -7 24 -10 63 -8 l62 3 3 35 c2 21
-3 43 -13 55 l-17 20 8 -20 c4 -11 7 -31 8 -45 1 -21 -4 -25 -30 -28 -19 -2
-39 4 -54 16 l-24 19 37 7 c37 7 47 22 26 43 -7 7 4 12 38 16 61 7 116 28 90
34 -14 4 -9 11 23 34 45 33 48 52 7 57 -33 4 -33 13 -6 104 25 82 17 96 -40
71 -20 -8 -42 -17 -49 -20 -11 -5 -12 6 -7 52 13 100 14 96 -29 79 -17 -7 -17
-5 -2 24 23 44 21 55 -9 48 -14 -3 -37 -9 -52 -13 l-28 -6 28 36 c26 34 35 67
20 67 -5 0 -50 -9 -101 -21 -51 -12 -95 -19 -98 -17 -2 3 -1 30 4 60 8 54 1
98 -16 98 -5 0 -34 -27 -66 -59z m3 -29 c-19 -21 -36 -37 -38 -35 -5 3 59 73
67 73 2 0 -11 -17 -29 -38z m-81 -44 c16 -20 27 -93 13 -84 -13 9 -15 -25 -2
-40 11 -11 -4 -54 -19 -54 -6 0 -20 5 -30 10 -17 9 -19 19 -15 77 2 36 7 74
10 84 7 22 28 25 43 7z m-98 -28 c6 -11 8 -20 6 -20 -3 0 -10 9 -16 20 -6 11
-8 20 -6 20 3 0 10 -9 16 -20z m340 -80 c0 -11 -7 -20 -15 -20 -18 0 -19 12
-3 28 16 16 18 15 18 -8z m-235 -191 c9 -29 5 -29 -34 -2 l-34 23 31 0 c22 0
32 -6 37 -21z m-33 -21 c13 -13 17 -18 8 -12 -8 6 -24 16 -35 22 -11 6 -15 12
-8 12 7 0 22 -10 35 -22z m263 -68 c-27 -12 -43 -12 -25 0 8 5 22 9 30 9 10 0
8 -3 -5 -9z"/>
<path d="M1620 970 c0 -5 5 -10 10 -10 6 0 10 5 10 10 0 6 -4 10 -10 10 -5 0
-10 -4 -10 -10z"/>
<path d="M4541 1182 c0 -7 -5 -10 -11 -7 -5 3 -19 -3 -31 -14 -12 -11 -26 -18
-31 -15 -13 8 -9 -12 5 -23 6 -6 22 -13 34 -15 17 -5 24 1 33 22 7 16 10 37 7
47 -3 10 -5 12 -6 5z m-11 -43 c0 -22 -30 -24 -38 -1 -2 8 2 10 14 5 12 -4 15
-3 10 5 -4 7 -2 12 3 12 6 0 11 -9 11 -21z"/>
<path d="M4018 1083 c7 -3 16 -2 19 1 4 3 -2 6 -13 5 -11 0 -14 -3 -6 -6z"/>
<path d="M1487 1039 c7 -7 15 -10 18 -7 3 3 -2 9 -12 12 -14 6 -15 5 -6 -5z"/>
<path d="M2506 957 c16 -19 30 -33 32 -31 7 5 -30 52 -45 58 -8 4 -2 -9 13
-27z"/>
<path d="M4101 924 c0 -11 3 -14 6 -6 3 7 2 16 -1 19 -3 4 -6 -2 -5 -13z"/>
<path d="M4308 903 c-8 -10 -18 -25 -22 -33 -4 -8 0 -6 8 5 9 11 24 26 33 33
9 6 12 12 6 12 -5 0 -17 -8 -25 -17z"/>
<path d="M2545 861 c-3 -11 -18 -24 -33 -30 -24 -9 -25 -9 -5 -10 22 -1 62 43
50 55 -3 3 -8 -4 -12 -15z"/>
<path d="M2430 861 c0 -6 4 -13 10 -16 6 -3 7 1 4 9 -7 18 -14 21 -14 7z"/>
<path d="M2292 844 c-19 -13 -32 -54 -16 -54 18 0 64 37 62 49 -4 21 -21 23
-46 5z"/>
<path d="M1426 835 c-25 -25 -22 -110 5 -128 26 -19 57 -11 61 17 6 34 -9 88
-30 108 -18 18 -20 18 -36 3z m32 -33 c3 -17 -2 -22 -17 -22 -22 0 -25 8 -15
35 9 22 28 14 32 -13z m22 -62 c0 -24 -27 -37 -43 -21 -8 8 -6 15 9 26 26 20
34 19 34 -5z"/>
<path d="M3059 839 c-10 -6 -7 -9 14 -9 29 0 35 5 14 13 -8 3 -20 1 -28 -4z"/>
<path d="M3024 775 c-5 -30 -8 -33 -26 -24 -10 6 -24 8 -31 6 -7 -2 3 -12 21
-21 19 -10 35 -16 37 -14 6 6 17 88 11 88 -3 0 -8 -16 -12 -35z"/>
<path d="M2674 758 l-19 -23 23 19 c21 18 27 26 19 26 -2 0 -12 -10 -23 -22z"/>
<path d="M1272 758 c-13 -13 -16 -48 -4 -48 4 0 15 -12 24 -27 10 -16 18 -23
18 -16 0 6 -5 15 -10 18 -6 4 -2 18 10 36 12 16 18 33 15 39 -8 14 -38 13 -53
-2z"/>
<path d="M4946 711 c-4 -5 3 -7 14 -4 23 6 26 13 6 13 -8 0 -17 -4 -20 -9z"/>
<path d="M3047 647 c-3 -28 1 -50 12 -67 9 -14 19 -32 23 -40 4 -10 7 -11 7
-2 1 7 -6 24 -15 38 -12 17 -15 36 -10 64 3 21 2 41 -3 44 -5 3 -11 -13 -14
-37z"/>
<path d="M1353 595 c33 -32 66 -48 52 -25 -3 6 -13 10 -20 10 -8 0 -22 11 -31
25 -9 14 -21 25 -27 25 -5 0 6 -16 26 -35z"/>
<path d="M5036 616 c3 -9 1 -16 -6 -16 -6 0 -9 -4 -6 -9 7 -11 -39 -53 -49
-44 -4 5 -5 2 -1 -4 4 -8 1 -13 -8 -13 -9 0 -16 -7 -16 -15 0 -27 27 -16 69
30 45 49 48 57 26 75 -13 11 -14 10 -9 -4z"/>
<path d="M2727 512 c-15 -9 -27 -20 -27 -24 0 -5 -9 -8 -19 -8 -11 0 -23 -4
-26 -10 -3 -5 -1 -10 4 -10 6 0 11 -6 11 -12 0 -10 39 -12 170 -10 99 2 170 7
170 12 0 6 -5 10 -12 10 -7 0 -29 17 -50 37 -35 35 -66 41 -38 8 10 -12 10
-18 0 -30 -18 -22 -57 -19 -63 5 -7 28 -26 25 -37 -6 -9 -24 -14 -26 -46 -21
-49 8 -51 13 -24 42 29 31 23 39 -13 17z"/>
<path d="M6338 519 c-10 -5 -15 -16 -12 -24 4 -10 0 -15 -14 -15 -12 0 -25 -8
-31 -17 -7 -14 -3 -19 27 -30 57 -20 92 -17 92 7 0 16 -7 20 -30 20 -16 0 -30
4 -30 9 0 5 14 14 30 21 17 7 30 19 30 26 0 16 -37 18 -62 3z"/>
<path d="M1740 510 c0 -6 -15 -19 -32 -30 l-33 -20 27 0 c15 0 30 5 33 10 10
17 25 11 25 -10 0 -15 7 -20 25 -20 28 0 26 20 -8 58 -22 23 -37 29 -37 12z"/>
<path d="M3081 488 c0 -16 -8 -28 -18 -31 -10 -3 1 -5 24 -6 23 0 45 4 48 9 3
6 -5 10 -19 10 -18 0 -26 6 -29 23 -4 19 -4 19 -6 -5z"/>
<path d="M3990 500 c0 -5 8 -6 17 -3 12 5 15 2 10 -10 -9 -24 10 -21 23 3 10
18 8 20 -20 20 -16 0 -30 -4 -30 -10z"/>
<path d="M4062 490 c-10 -17 -10 -20 5 -20 26 0 47 16 39 29 -11 17 -30 13
-44 -9z"/>
<path d="M2151 484 c0 -11 3 -14 6 -6 3 7 2 16 -1 19 -3 4 -6 -2 -5 -13z"/>
<path d="M5373 489 c-25 -9 -30 -19 -10 -19 15 0 43 17 37 23 -3 3 -15 1 -27
-4z"/>
<path d="M4230 480 c36 -11 50 -11 50 0 0 6 -17 10 -37 9 -34 -1 -35 -2 -13
-9z"/>
<path d="M5013 483 c-47 -3 -75 -9 -83 -18 -19 -23 83 -20 145 5 28 10 41 18
30 18 -11 -1 -52 -4 -92 -5z"/>
<path d="M5193 483 c26 -2 67 -2 90 0 23 2 2 3 -48 3 -49 0 -68 -1 -42 -3z"/>
<path d="M5448 483 c7 -3 16 -2 19 1 4 3 -2 6 -13 5 -11 0 -14 -3 -6 -6z"/>
<path d="M2305 471 c-7 -13 5 -19 53 -27 35 -5 42 -4 42 10 0 13 4 15 18 8 9
-5 44 -12 78 -15 33 -4 68 -9 76 -12 9 -4 18 1 22 11 4 11 2 15 -6 11 -7 -2
-24 0 -38 5 -34 14 -237 20 -245 9z"/>
<path d="M6083 369 c-17 -3 -43 -16 -58 -28 -17 -12 -42 -21 -64 -21 -45 0
-57 -8 -70 -43 -12 -31 -15 -195 -5 -246 l7 -31 118 0 119 0 -6 24 c-5 20 -1
24 24 29 43 9 71 -2 78 -29 6 -23 10 -24 90 -24 l84 0 0 61 c0 56 -2 61 -20
56 -17 -4 -19 -1 -14 19 9 34 -15 114 -31 108 -10 -4 -11 3 -5 29 4 19 5 39 1
44 -12 20 -54 35 -78 28 -14 -3 -31 -1 -39 6 -20 16 -92 26 -131 18z"/>
<path d="M335 344 c-16 -8 -43 -13 -60 -11 -16 2 -40 1 -53 -4 -20 -8 -23 -15
-20 -46 3 -36 6 -39 55 -55 110 -37 219 -18 253 44 21 39 4 63 -46 64 -22 0
-52 6 -67 12 -34 14 -26 15 -62 -4z m172 -46 c-3 -8 -6 -5 -6 6 -1 11 2 17 5
13 3 -3 4 -12 1 -19z"/>
<path d="M0 294 c0 -58 0 -59 15 -30 19 36 19 60 0 76 -13 11 -15 5 -15 -46z"/>
<path d="M5585 336 c-11 -8 -25 -12 -32 -9 -7 3 -20 0 -28 -7 -13 -10 -19 -9
-35 5 -15 14 -29 16 -66 10 -64 -9 -104 -49 -104 -103 0 -31 -4 -41 -19 -45
-29 -7 -53 -50 -45 -81 3 -14 10 -23 15 -20 5 3 9 1 9 -5 0 -5 -6 -11 -12 -14
-7 -2 18 -7 56 -11 67 -7 105 -19 117 -39 4 -5 57 -12 118 -15 l111 -5 -16 38
c-20 48 -44 174 -44 229 0 23 -6 48 -12 55 -10 11 -10 13 0 7 7 -4 12 -1 12 8
0 19 -1 20 -25 2z m-85 -116 c0 -14 -11 -22 -37 -29 -73 -21 -89 -12 -53 27
28 30 90 31 90 2z"/>
<path d="M761 174 c-23 -52 -49 -113 -56 -135 l-14 -39 90 0 c104 0 104 1 25
82 l-46 47 21 58 c12 32 26 64 32 71 5 7 6 12 0 12 -5 0 -28 -43 -52 -96z"/>
<path d="M1090 223 c0 -5 7 -17 15 -27 15 -20 20 -10 9 18 -6 16 -24 22 -24 9z"/>
<path d="M5700 216 c0 -14 21 -58 26 -53 3 3 1 14 -5 25 -8 15 -8 22 2 25 7 3
5 6 -5 6 -10 1 -18 -1 -18 -3z"/>
<path d="M1019 186 c14 -14 27 -26 29 -26 10 0 -26 44 -39 48 -8 3 -3 -7 10
-22z"/>
<path d="M2515 166 c-18 -9 -23 -15 -13 -15 9 -1 18 -6 20 -12 2 -7 17 -8 42
-4 22 5 33 11 26 15 -6 4 -10 11 -8 16 5 15 -35 14 -67 0z"/>
<path d="M528 151 c-31 -10 -76 -30 -100 -44 -29 -17 -49 -22 -63 -17 -50 18
-134 21 -180 6 -60 -21 -98 -20 -111 2 -6 9 -26 25 -43 35 l-31 18 0 -75 0
-76 278 0 277 1 45 77 c25 42 47 80 48 85 6 13 -62 6 -120 -12z"/>
<path d="M1162 153 c-32 -6 -16 -23 21 -22 20 1 25 3 13 6 -15 4 -16 7 -5 14
14 9 10 9 -29 2z"/>
<path d="M5814 123 l-30 -37 -24 22 c-13 12 -25 20 -28 18 -2 -3 6 -32 19 -64
l23 -60 46 2 c29 1 45 5 44 14 -1 6 -2 41 -2 77 -1 36 -6 65 -10 65 -5 0 -22
-17 -38 -37z"/>
<path d="M977 106 c-4 -15 -6 -31 -2 -34 10 -10 16 6 13 35 l-3 28 -8 -29z"/>
<path d="M1140 110 c20 -13 33 -13 25 0 -3 6 -14 10 -23 10 -15 0 -15 -2 -2
-10z"/>
<path d="M3653 112 c-28 -4 -30 -32 -4 -56 18 -16 22 -16 49 -2 43 22 46 40 8
51 -17 6 -41 9 -53 7z"/>
<path d="M1786 101 c-3 -4 -4 -17 -1 -29 3 -16 -3 -22 -26 -27 -46 -10 -34
-25 22 -25 l51 0 -21 33 c-16 26 -18 36 -9 45 9 9 9 12 1 12 -7 0 -14 -4 -17
-9z"/>
<path d="M4923 84 c-29 -15 -53 -30 -53 -34 0 -3 11 -17 24 -29 22 -21 32 -23
114 -20 50 2 93 6 96 9 3 3 9 25 14 48 l10 42 -32 0 c-17 -1 -51 2 -76 5 -37
5 -55 1 -97 -21z"/>
<path d="M1713 93 c9 -2 25 -2 35 0 9 3 1 5 -18 5 -19 0 -27 -2 -17 -5z"/>
<path d="M1821 96 c2 -2 15 -9 29 -16 23 -12 24 -12 11 3 -7 10 -20 17 -29 17
-8 0 -13 -2 -11 -4z"/>
<path d="M1700 50 c0 -5 4 -10 9 -10 6 0 13 5 16 10 3 6 -1 10 -9 10 -9 0 -16
-4 -16 -10z"/>
<path d="M1875 50 c3 -5 14 -10 23 -10 15 0 15 2 2 10 -20 13 -33 13 -25 0z"/>
<path d="M2110 50 c0 -5 7 -10 16 -10 8 0 12 5 9 10 -3 6 -10 10 -16 10 -5 0
-9 -4 -9 -10z"/>
<path d="M2720 40 c0 -5 9 -10 20 -10 11 0 20 5 20 10 0 6 -9 10 -20 10 -11 0
-20 -4 -20 -10z"/>
<path d="M1230 20 c0 -5 5 -10 11 -10 5 0 7 5 4 10 -3 6 -8 10 -11 10 -2 0 -4
-4 -4 -10z"/>
<path d="M1670 10 c-9 -6 -10 -10 -3 -10 6 0 15 5 18 10 8 12 4 12 -15 0z"/>
<path d="M4875 10 c-3 -5 -1 -10 4 -10 6 0 11 5 11 10 0 6 -2 10 -4 10 -3 0
-8 -4 -11 -10z"/>
<path d="M5390 10 c0 -5 9 -10 21 -10 11 0 17 4 14 10 -8 13 -35 13 -35 0z"/>
</g>
</svg>
